<?xml version="1.0" encoding="utf-8"?>
<!-- Generator: Adobe Illustrator 18.1.1, SVG Export Plug-In . SVG Version: 6.00 Build 0)  -->
<svg version="1.1" id="Layer_1" xmlns="http://www.w3.org/2000/svg" xmlns:xlink="http://www.w3.org/1999/xlink" x="0px" y="0px"
	 width="32.2px" height="46.3px" viewBox="0 0 32.2 46.3" style="enable-background:new 0 0 32.2 46.3;" xml:space="preserve">
<style type="text/css">
	.st0{opacity:0.15;}
	.st1{fill:#F0711F;stroke:#EEC9B0;stroke-miterlimit:10;}
	.st2{fill:#FFFFFF;}
	.st3{fill:#27AEEA;stroke:#A4CCDD;stroke-miterlimit:10;}
	.st4{fill:#1D83B0;stroke:#A4CCDD;stroke-miterlimit:10;}
	.st5{fill:#C6CC00;stroke:#E8EB99;stroke-miterlimit:10;}
	.st6{fill:none;stroke:#FFFFFF;stroke-width:0.5;stroke-miterlimit:10;}
	.st7{fill:#C6CC00;}
	.st8{fill:none;stroke:#231F20;stroke-width:0.75;stroke-miterlimit:10;}
	.st9{fill:#868A8E;stroke:#CFD0D2;stroke-miterlimit:10;}
	.st10{fill:#231F20;stroke:#231F20;stroke-width:0.5;stroke-miterlimit:10;}
	.st11{fill:#1D83B0;}
	.st12{fill:#A4CCDD;}
	.st13{fill:#868A8E;}
</style>
<g>
	<ellipse class="st0" cx="15.6" cy="43" rx="8.3" ry="3.2"/>
	<path class="st9" d="M31.7,16.7c0,10.8-15.6,26.8-15.6,26.8S0.5,27.5,0.5,16.7c0-9.3,6.6-16.2,15.6-16.2S31.7,8,31.7,16.7z"/>
	<g>
		<g>
			<path class="st2" d="M22.4,21.8c-4.2,0-8.4,0-12.6,0c0.2,0.2,0.5,0.5,0.8,0.8c0-3.1,0-6.1,0-9.2c-0.2,0.2-0.5,0.5-0.8,0.8
				c4.2,0,8.4,0,12.6,0c-0.2-0.2-0.5-0.5-0.8-0.8c0,3.1,0,6.1,0,9.2c0,1,1.5,1,1.5,0c0-3.1,0-6.1,0-9.2c0-0.4-0.3-0.8-0.8-0.8
				c-4.2,0-8.4,0-12.6,0c-0.4,0-0.8,0.3-0.8,0.8c0,3.1,0,6.1,0,9.2c0,0.4,0.3,0.8,0.8,0.8c4.2,0,8.4,0,12.6,0
				C23.4,23.3,23.4,21.8,22.4,21.8z"/>
		</g>
	</g>
	<g>
		<g>
			<path class="st2" d="M12.1,8.6c1.1,1.7,2.3,3.4,3.4,5.1c0.3,0.5,1,0.5,1.3,0c1.1-1.7,2.1-3.4,3.2-5.1c0.5-0.8-0.8-1.6-1.3-0.8
				c-1.1,1.7-2.1,3.4-3.2,5.1c0.4,0,0.9,0,1.3,0c-1.1-1.7-2.3-3.4-3.4-5.1C12.8,7.1,11.5,7.8,12.1,8.6L12.1,8.6z"/>
		</g>
	</g>
</g>
</svg>
