<?xml version="1.0" encoding="utf-8"?>
<!-- Generator: Adobe Illustrator 18.1.1, SVG Export Plug-In . SVG Version: 6.00 Build 0)  -->
<svg version="1.1" id="Layer_1" xmlns="http://www.w3.org/2000/svg" xmlns:xlink="http://www.w3.org/1999/xlink" x="0px" y="0px"
	 width="32.2px" height="46.3px" viewBox="0 0 32.2 46.3" style="enable-background:new 0 0 32.2 46.3;" xml:space="preserve">
<style type="text/css">
	.st0{opacity:0.15;}
	.st1{fill:#F0711F;stroke:#EEC9B0;stroke-miterlimit:10;}
	.st2{fill:#FFFFFF;}
	.st3{fill:#27AEEA;stroke:#A4CCDD;stroke-miterlimit:10;}
	.st4{fill:#1D83B0;stroke:#A4CCDD;stroke-miterlimit:10;}
	.st5{fill:#C6CC00;stroke:#E8EB99;stroke-miterlimit:10;}
	.st6{fill:none;stroke:#FFFFFF;stroke-width:0.5;stroke-miterlimit:10;}
	.st7{fill:#C6CC00;}
	.st8{fill:none;stroke:#231F20;stroke-width:0.75;stroke-miterlimit:10;}
	.st9{fill:#868A8E;stroke:#CFD0D2;stroke-miterlimit:10;}
	.st10{fill:#231F20;stroke:#231F20;stroke-width:0.5;stroke-miterlimit:10;}
	.st11{fill:#1D83B0;}
	.st12{fill:#A4CCDD;}
	.st13{fill:#868A8E;}
</style>
<g>
	<ellipse class="st0" cx="15.6" cy="43" rx="8.3" ry="3.2"/>
	<path class="st4" d="M31.7,16.7c0,10.8-15.6,26.8-15.6,26.8S0.5,27.5,0.5,16.7c0-9.3,6.6-16.2,15.6-16.2S31.7,8,31.7,16.7z"/>
	<g>
		<g>
			<g>
				<path class="st2" d="M9.1,11c4.8,0,9.6,0,14.4,0c-0.2-0.4-0.4-0.9-0.5-1.3c-2.4,2.9-4.8,5.8-7.2,8.6c0.4,0,0.7,0,1.1,0
					c-2.4-2.9-4.8-5.8-7.2-8.6C9,9,7.9,10.1,8.5,10.8c2.4,2.9,4.8,5.8,7.2,8.6c0.2,0.3,0.8,0.3,1.1,0c2.4-2.9,4.8-5.8,7.2-8.6
					c0.4-0.5,0.2-1.3-0.5-1.3c-4.8,0-9.6,0-14.4,0C8.1,9.5,8.1,11,9.1,11z"/>
			</g>
		</g>
		<g>
			<g>
				<path class="st2" d="M15.5,18.8c0,2.4,0,4.7,0,7.1c0,1,1.5,1,1.5,0c0-2.4,0-4.7,0-7.1C17,17.8,15.5,17.8,15.5,18.8L15.5,18.8z"
					/>
			</g>
		</g>
		<g>
			<g>
				<path class="st2" d="M12,27.4c2.8,0,5.7,0,8.5,0c1,0,1-1.5,0-1.5c-2.8,0-5.7,0-8.5,0C11,25.9,11,27.4,12,27.4L12,27.4z"/>
			</g>
		</g>
	</g>
</g>
</svg>
