<?xml version="1.0" encoding="utf-8"?>
<!-- Generator: Adobe Illustrator 18.1.1, SVG Export Plug-In . SVG Version: 6.00 Build 0)  -->
<svg version="1.1" id="Layer_1" xmlns="http://www.w3.org/2000/svg" xmlns:xlink="http://www.w3.org/1999/xlink" x="0px" y="0px"
	 width="26.9px" height="51.1px" viewBox="0 0 26.9 51.1" style="enable-background:new 0 0 26.9 51.1;" xml:space="preserve">
<style type="text/css">
	.st0{opacity:0.15;}
	.st1{fill:#F0711F;stroke:#EEC9B0;stroke-miterlimit:10;}
	.st2{fill:#FFFFFF;}
	.st3{fill:#27AEEA;stroke:#A4CCDD;stroke-miterlimit:10;}
	.st4{fill:#1D83B0;stroke:#A4CCDD;stroke-miterlimit:10;}
	.st5{fill:#C6CC00;stroke:#E8EB99;stroke-miterlimit:10;}
	.st6{fill:none;stroke:#FFFFFF;stroke-width:0.5;stroke-miterlimit:10;}
	.st7{fill:#C6CC00;}
	.st8{fill:none;stroke:#231F20;stroke-width:0.75;stroke-miterlimit:10;}
	.st9{fill:#868A8E;stroke:#CFD0D2;stroke-miterlimit:10;}
	.st10{fill:#231F20;stroke:#231F20;stroke-width:0.5;stroke-miterlimit:10;}
	.st11{fill:#1D83B0;}
	.st12{fill:#A4CCDD;}
	.st13{fill:#868A8E;}
</style>
<g>
	<g>
		<line class="st11" x1="1.5" y1="25.7" x2="25.4" y2="49.6"/>
		<g>
			<path class="st12" d="M0.4,26.8c8,8,15.9,15.9,23.9,23.9c1.4,1.4,3.5-0.8,2.1-2.1c-8-8-15.9-15.9-23.9-23.9
				C1.2,23.3-0.9,25.4,0.4,26.8L0.4,26.8z"/>
		</g>
	</g>
	<g>
		<line class="st11" x1="25.4" y1="1.5" x2="1.5" y2="25.4"/>
		<g>
			<path class="st12" d="M24.3,0.4c-8,8-15.9,15.9-23.9,23.9c-1.4,1.4,0.8,3.5,2.1,2.1c8-8,15.9-15.9,23.9-23.9
				C27.8,1.2,25.7-0.9,24.3,0.4L24.3,0.4z"/>
		</g>
	</g>
</g>
</svg>
