<?xml version="1.0" encoding="utf-8"?>
<!-- Generator: Adobe Illustrator 18.1.1, SVG Export Plug-In . SVG Version: 6.00 Build 0)  -->
<svg version="1.1" id="Layer_1" xmlns="http://www.w3.org/2000/svg" xmlns:xlink="http://www.w3.org/1999/xlink" x="0px" y="0px"
	 width="32.2px" height="46.3px" viewBox="0 0 32.2 46.3" style="enable-background:new 0 0 32.2 46.3;" xml:space="preserve">
<style type="text/css">
	.st0{opacity:0.15;}
	.st1{fill:#F0711F;stroke:#EEC9B0;stroke-miterlimit:10;}
	.st2{fill:#FFFFFF;}
	.st3{fill:#27AEEA;stroke:#A4CCDD;stroke-miterlimit:10;}
	.st4{fill:#1D83B0;stroke:#A4CCDD;stroke-miterlimit:10;}
	.st5{fill:#C6CC00;stroke:#E8EB99;stroke-miterlimit:10;}
	.st6{fill:none;stroke:#FFFFFF;stroke-width:0.5;stroke-miterlimit:10;}
	.st7{fill:#C6CC00;}
	.st8{fill:none;stroke:#231F20;stroke-width:0.75;stroke-miterlimit:10;}
	.st9{fill:#868A8E;stroke:#CFD0D2;stroke-miterlimit:10;}
	.st10{fill:#231F20;stroke:#231F20;stroke-width:0.5;stroke-miterlimit:10;}
	.st11{fill:#1D83B0;}
	.st12{fill:#A4CCDD;}
	.st13{fill:#868A8E;}
</style>
<g>
	<ellipse class="st0" cx="15.6" cy="43" rx="8.3" ry="3.2"/>
	<path class="st5" d="M31.7,16.7c0,10.8-15.6,26.8-15.6,26.8S0.5,27.5,0.5,16.7c0-9.3,6.6-16.2,15.6-16.2S31.7,8,31.7,16.7z"/>
	<circle class="st6" cx="16.1" cy="9.1" r="1"/>
	<g>
		<g>
			<path class="st2" d="M25.7,19.8c-0.6,2.7-7.5,2.6-9.4,2.6c-1.4,0-2.8-0.1-4.1-0.3c-1.9-0.3-3.3,0-3.3-2.1c0-1.8,0.6-1.6,2.1-1.9
				c1.7-0.4,3.6-0.5,5.3-0.5c1.8,0,8.8,0,9.4,2.6c0.2,0.9,1.7,0.5,1.4-0.4c-0.9-4-8.7-3.8-11.6-3.7C13.3,16.2,5.3,16.4,5.3,20
				c0,3.5,7.2,3.8,9.4,3.9c3,0.1,11.4,0.4,12.4-3.7C27.3,19.3,25.9,18.9,25.7,19.8z"/>
		</g>
	</g>
	<g>
		<path class="st7" d="M7.9,19.3c0,0,7.5,2.8,16.9,0c0,0,0.1-9.1-8.5-9.1C7.8,10.2,7.9,19.3,7.9,19.3z"/>
		<g>
			<path class="st2" d="M7.7,20c5.5,2,11.8,1.5,17.3,0c0.3-0.1,0.6-0.4,0.6-0.7c0-5.4-3.7-9.9-9.2-9.9c-5.5,0-9.2,4.5-9.2,9.9
				c0,1,1.5,1,1.5,0c0-2.2,0.8-4.8,2.4-6.4c3.4-3.5,9.9-2.4,12,1.9c0.4,0.8,1.2,2.7,1,3.7c0,0.2,0.1,0.6,0,0.7
				c-0.6-0.5-1.3-0.5-2-0.1c-1.1,0.2-2.2,0.4-3.3,0.5c-3.5,0.3-7.3,0.1-10.7-1.1C7.2,18.3,6.8,19.7,7.7,20z"/>
		</g>
	</g>
</g>
</svg>
